<?xml version="1.0" encoding="iso-8859-1"?>
<!-- Generator: Adobe Illustrator 19.0.0, SVG Export Plug-In . SVG Version: 6.00 Build 0)  -->
<svg version="1.1" id="Layer_1" xmlns="http://www.w3.org/2000/svg" xmlns:xlink="http://www.w3.org/1999/xlink" x="0px" y="0px"
	 viewBox="0 0 512.001 512.001" style="enable-background:new 0 0 512.001 512.001;" xml:space="preserve">
<g>
	<g>
		<path  style="fill:#D6D6D6;" d="M496.828,15.175c-20.236-20.233-53.156-20.23-73.386,0L268.936,169.68c-6.975,6.974-6.975,18.284,0,25.26l48.126,48.126
			c6.975,6.974,18.283,6.975,25.26,0L496.827,88.56C517.058,68.328,517.059,35.408,496.828,15.175z"/>
	</g>
</g>
<g>
	<g>
		<path  style="fill:#D6D6D6;" d="M276.161,252.68l-16.841-16.84c-2.326-2.324-6.094-2.324-8.42,0l-24.832,24.832
			c-37.813-25.916-90.014-22.117-123.577,11.445c-0.002,0.002-0.004,0.004-0.006,0.006L5.232,369.378
			c-6.975,6.974-6.975,18.284,0,25.26l37.375,37.375c0.001,0,0.001,0.001,0.002,0.002c0,0,0.001,0.001,0.002,0.001l74.752,74.753
			c6.969,6.971,18.285,6.975,25.26,0l97.248-97.248c0.004-0.004,0.008-0.007,0.012-0.011
			c33.564-33.564,37.361-85.765,11.446-123.579l24.832-24.832C278.486,258.775,278.486,255.005,276.161,252.68z M43.121,382.01
			l71.999-72l12.117,12.118l-71.999,71.999L43.121,382.01z M92.615,431.503l-12.117-12.118l71.999-71.999l12.117,12.118
			L92.615,431.503z M129.993,468.881l-12.117-12.118l71.999-71.999l12.117,12.117L129.993,468.881z"/>
	</g>
</g>
<g>
</g>
<g>
</g>
<g>
</g>
<g>
</g>
<g>
</g>
<g>
</g>
<g>
</g>
<g>
</g>
<g>
</g>
<g>
</g>
<g>
</g>
<g>
</g>
<g>
</g>
<g>
</g>
<g>
</g>
</svg>
